<svg width="32" height="32" viewBox="0 0 32 32" fill="none" xmlns="http://www.w3.org/2000/svg">
<path d="M17.3333 29.3333H6.66663C3.99996 29.3333 2.66663 28 2.66663 25.3333V14.6667C2.66663 12 3.99996 10.6667 6.66663 10.6667H13.3333V25.3333C13.3333 28 14.6666 29.3333 17.3333 29.3333Z" stroke="#246BFD" stroke-width="1.5" stroke-miterlimit="10" stroke-linecap="round" stroke-linejoin="round"/>
<path d="M13.4799 5.33333C13.3733 5.73333 13.3333 6.17333 13.3333 6.66666V10.6667H6.66663V7.99999C6.66663 6.53333 7.86663 5.33333 9.33329 5.33333H13.4799Z" stroke="#246BFD" stroke-width="1.5" stroke-miterlimit="10" stroke-linecap="round" stroke-linejoin="round"/>
<path d="M18.6666 10.6667V17.3333" stroke="#246BFD" stroke-width="1.5" stroke-miterlimit="10" stroke-linecap="round" stroke-linejoin="round"/>
<path d="M24 10.6667V17.3333" stroke="#246BFD" stroke-width="1.5" stroke-miterlimit="10" stroke-linecap="round" stroke-linejoin="round"/>
<path d="M22.6666 22.6667H20C19.2666 22.6667 18.6666 23.2667 18.6666 24V29.3333H24V24C24 23.2667 23.4 22.6667 22.6666 22.6667Z" stroke="#246BFD" stroke-width="1.5" stroke-miterlimit="10" stroke-linecap="round" stroke-linejoin="round"/>
<path d="M8 17.3333V22.6667" stroke="#246BFD" stroke-width="1.5" stroke-miterlimit="10" stroke-linecap="round" stroke-linejoin="round"/>
<path d="M13.3334 25.3333V6.66667C13.3334 4.00001 14.6667 2.66667 17.3334 2.66667H25.3334C28 2.66667 29.3334 4.00001 29.3334 6.66667V25.3333C29.3334 28 28 29.3333 25.3334 29.3333H17.3334C14.6667 29.3333 13.3334 28 13.3334 25.3333Z" stroke="#246BFD" stroke-width="1.5" stroke-miterlimit="10" stroke-linecap="round" stroke-linejoin="round"/>
</svg>
