<svg width="32" height="32" viewBox="0 0 32 32" fill="none" xmlns="http://www.w3.org/2000/svg">
<path d="M23.9999 9.54668C23.9199 9.53334 23.8266 9.53334 23.7466 9.54668C21.9066 9.48001 20.4399 7.97334 20.4399 6.10667C20.4399 4.20001 21.9733 2.66667 23.8799 2.66667C25.7866 2.66667 27.3199 4.21334 27.3199 6.10667C27.3066 7.97334 25.8399 9.48001 23.9999 9.54668Z" stroke="#246BFD" stroke-width="1.5" stroke-linecap="round" stroke-linejoin="round"/>
<path d="M22.6266 19.2534C24.4532 19.56 26.4666 19.24 27.8799 18.2934C29.7599 17.04 29.7599 14.9867 27.8799 13.7334C26.4532 12.7867 24.4132 12.4667 22.5865 12.7867" stroke="#246BFD" stroke-width="1.5" stroke-linecap="round" stroke-linejoin="round"/>
<path d="M7.96002 9.54668C8.04002 9.53334 8.13335 9.53334 8.21335 9.54668C10.0533 9.48001 11.52 7.97334 11.52 6.10667C11.52 4.20001 9.98668 2.66667 8.08002 2.66667C6.17335 2.66667 4.64001 4.21334 4.64001 6.10667C4.65335 7.97334 6.12002 9.48001 7.96002 9.54668Z" stroke="#246BFD" stroke-width="1.5" stroke-linecap="round" stroke-linejoin="round"/>
<path d="M9.33337 19.2534C7.50671 19.56 5.49338 19.24 4.08004 18.2934C2.20004 17.04 2.20004 14.9867 4.08004 13.7334C5.50671 12.7867 7.54671 12.4667 9.37337 12.7867" stroke="#246BFD" stroke-width="1.5" stroke-linecap="round" stroke-linejoin="round"/>
<path d="M15.9999 19.5067C15.9199 19.4933 15.8266 19.4933 15.7466 19.5067C13.9066 19.44 12.4399 17.9333 12.4399 16.0667C12.4399 14.16 13.9733 12.6267 15.8799 12.6267C17.7866 12.6267 19.3199 14.1733 19.3199 16.0667C19.3066 17.9333 17.8399 19.4533 15.9999 19.5067Z" stroke="#246BFD" stroke-width="1.5" stroke-linecap="round" stroke-linejoin="round"/>
<path d="M12.12 23.7067C10.24 24.96 10.24 27.0133 12.12 28.2667C14.2533 29.6933 17.7466 29.6933 19.88 28.2667C21.76 27.0133 21.76 24.96 19.88 23.7067C17.76 22.2933 14.2533 22.2933 12.12 23.7067Z" stroke="#246BFD" stroke-width="1.5" stroke-linecap="round" stroke-linejoin="round"/>
</svg>
