<svg width="24" height="24" viewBox="0 0 24 24" fill="none" xmlns="http://www.w3.org/2000/svg">
    <path d="M12 9C11.59 9 11.25 8.71843 11.25 8.37888V5.62112C11.25 5.28157 11.59 5 12 5C12.41 5 12.75 5.28157 12.75 5.62112V8.37888C12.75 8.72671 12.41 9 12 9Z" fill="#9FA8BC"/>
    <path d="M12.0161 19.6454C9.61036 19.6454 7.21398 19.2668 4.92949 18.5096C4.08097 18.2326 3.43758 17.6324 3.15785 16.8753C2.87811 16.1181 2.97136 15.2502 3.42825 14.493L4.61246 12.5355C4.87354 12.1015 5.10666 11.289 5.10666 10.7811V8.84208C5.10666 5.06555 8.20237 2 12.0161 2C15.8298 2 18.9255 5.06555 18.9255 8.84208V10.7811C18.9255 11.2797 19.1586 12.1015 19.4197 12.5355L20.6039 14.493C21.0421 15.2132 21.1167 16.072 20.8277 16.8568C20.5386 17.6417 19.9046 18.2419 19.1027 18.5096C16.8182 19.276 14.4218 19.6454 12.0161 19.6454ZM12.0161 3.39427C8.9763 3.39427 6.50532 5.84117 6.50532 8.85131V10.7904C6.50532 11.5383 6.20694 12.6186 5.81531 13.2557L4.63111 15.2225C4.38867 15.6195 4.33273 16.0443 4.47259 16.4136C4.61246 16.783 4.92949 17.06 5.37706 17.2077C9.66631 18.6204 14.3845 18.6204 18.6737 17.2077C19.0747 17.0784 19.3824 16.783 19.5223 16.3951C19.6714 16.0073 19.6248 15.5826 19.4104 15.2225L18.2262 13.265C17.8345 12.6278 17.5361 11.5475 17.5361 10.7996V8.86055C17.5268 5.84117 15.0558 3.39427 12.0161 3.39427Z" fill="#9FA8BC"/>
    <path d="M12 22C10.951 22 9.92157 21.5937 9.17647 20.8919C8.43137 20.1902 8 19.2207 8 18.2327H9.47059C9.47059 18.8605 9.7451 19.47 10.2157 19.9132C10.6863 20.3564 11.3333 20.6149 12 20.6149C13.3922 20.6149 14.5294 19.5438 14.5294 18.2327H16C16 20.3102 14.2059 22 12 22Z" fill="#9FA8BC"/>
</svg>